<?xml version="1.0" standalone="no"?>
<!DOCTYPE svg PUBLIC "-//W3C//DTD SVG 20010904//EN"
 "http://www.w3.org/TR/2001/REC-SVG-20010904/DTD/svg10.dtd">
<svg version="1.0" xmlns="http://www.w3.org/2000/svg"
 width="512.000000pt" height="512.000000pt" viewBox="0 0 512.000000 512.000000"
 preserveAspectRatio="xMidYMid meet">
<metadata>
Created by potrace 1.14, written by Peter Selinger 2001-2017
</metadata>
<g transform="translate(0.000000,512.000000) scale(0.100000,-0.100000)"
fill="#000000" stroke="none">
<path d="M1569 5110 c-6 -44 -9 -79 -10 -100 0 -14 -4 -27 -8 -30 -10 -7 -23
-72 -13 -66 4 2 8 -19 9 -47 1 -29 2 -68 3 -87 1 -19 -2 -91 -5 -160 -7 -138
-7 -132 1 -213 5 -46 9 -56 19 -47 11 9 13 -1 11 -49 -2 -59 9 -72 16 -21 3
24 4 24 20 -10 9 -19 19 -57 22 -85 2 -27 5 -50 6 -50 1 0 3 -11 5 -25 12 -80
45 -215 54 -218 6 -2 11 -16 11 -31 0 -14 6 -36 14 -47 16 -23 36 -121 29
-141 -3 -7 -1 -13 5 -13 6 0 12 6 15 13 2 6 7 -5 11 -26 4 -20 4 -41 1 -46 -3
-5 -58 -30 -123 -55 -325 -125 -920 -351 -1097 -416 -110 -40 -281 -103 -380
-140 l-180 -68 -3 -261 c-1 -143 -1 -261 0 -261 2 0 26 9 55 20 46 17 87 20
101 5 7 -7 5 -8 -62 -44 -32 -17 -54 -31 -49 -31 11 0 229 75 258 90 11 5 40
14 65 21 25 6 50 15 55 19 23 18 87 50 100 50 8 0 34 -13 58 -30 25 -16 50
-30 56 -30 6 0 11 -4 11 -10 0 -5 6 -10 14 -10 20 0 150 59 144 66 -3 3 -31
-6 -62 -20 -52 -23 -58 -24 -86 -10 -35 18 -47 34 -25 34 8 0 37 11 63 24 26
13 79 36 117 51 39 15 74 31 80 36 5 5 19 9 32 9 13 0 23 4 23 9 0 5 14 12 30
16 17 4 30 10 30 15 0 4 10 11 23 14 21 7 21 8 2 15 -11 5 -29 2 -45 -6 -18
-9 -26 -10 -29 -1 -9 26 86 69 101 45 4 -7 16 -6 40 3 67 26 103 44 110 54 4
6 13 11 20 11 7 0 103 45 213 98 110 54 221 108 247 120 26 12 47 24 48 27 0
3 -14 5 -31 6 -19 1 -26 -2 -18 -7 8 -5 2 -8 -16 -7 -17 0 -57 -9 -90 -20 -33
-12 -61 -19 -63 -17 -8 7 10 25 19 20 5 -3 6 1 3 10 -4 9 -13 14 -20 11 -8 -3
-13 0 -11 7 1 7 -7 11 -20 9 -13 -2 -23 1 -23 6 0 5 10 12 23 16 34 9 40 7 34
-8 -4 -11 -1 -13 10 -9 9 4 21 -1 29 -11 14 -20 36 -13 28 9 -4 8 -11 12 -17
8 -6 -3 -7 -1 -3 5 4 7 14 12 22 12 9 0 12 -5 8 -12 -4 -7 -3 -8 4 -4 6 4 9
13 5 21 -3 9 1 15 11 15 21 0 20 10 -1 26 -17 13 -17 13 0 14 9 0 17 -4 17
-10 0 -5 6 -10 13 -10 26 0 197 76 203 90 7 19 11 54 24 210 13 167 20 210 37
244 l15 30 16 -30 16 -29 7 30 c4 17 7 24 8 18 2 -21 21 -15 21 6 0 19 10 26
63 41 16 5 27 5 27 -1 0 -5 12 -9 28 -9 30 -1 62 -21 62 -39 0 -7 4 -9 10 -6
5 3 24 -8 41 -25 18 -17 43 -33 56 -36 12 -4 20 -10 17 -15 -3 -5 2 -12 10
-15 21 -8 20 -40 -1 -48 -10 -3 -25 -10 -33 -15 -8 -5 -24 -12 -34 -16 -19 -5
-19 -6 0 -20 17 -13 10 -14 -64 -15 -74 0 -83 -2 -80 -17 2 -11 12 -18 26 -17
26 1 27 0 6 -20 -9 -9 -11 -16 -4 -16 6 0 8 -4 5 -10 -11 -18 11 -10 30 10 34
38 63 15 69 -54 2 -18 6 -38 10 -45 4 -6 4 -11 -1 -11 -4 0 -2 -4 4 -8 7 -4
14 -25 15 -45 2 -20 8 -37 13 -37 6 0 19 -14 30 -30 11 -16 26 -30 34 -30 8 0
12 -3 8 -6 -3 -4 0 -19 9 -35 8 -16 12 -29 10 -29 -3 0 -1 -12 4 -26 8 -21 6
-33 -11 -60 -11 -19 -17 -34 -14 -34 4 0 3 -6 -4 -13 -6 -8 -8 -24 -5 -38 3
-13 7 -35 8 -49 0 -14 6 -25 13 -25 7 0 18 -9 26 -19 12 -16 23 -18 82 -14 65
6 91 20 78 42 -4 5 -1 6 8 0 8 -4 30 -9 49 -10 19 0 29 1 23 3 -19 7 -16 20 5
18 31 -3 72 -28 65 -39 -4 -6 -6 -22 -5 -37 2 -31 -15 -38 -77 -34 -23 2 -43
0 -46 -5 -2 -4 -18 -6 -34 -4 -16 2 -34 -2 -40 -10 -8 -9 -7 -13 4 -13 8 0 12
4 9 9 -3 4 9 6 26 4 17 -2 33 0 36 5 3 5 10 9 15 9 6 0 7 -5 4 -10 -4 -6 -3
-10 2 -9 4 1 15 1 23 0 12 -1 10 -5 -5 -17 -17 -13 -18 -16 -5 -24 9 -6 10
-10 3 -10 -6 0 -15 5 -18 10 -3 6 -14 9 -23 9 -15 -1 -15 -2 1 -6 24 -6 21
-19 -8 -45 -13 -11 -22 -25 -19 -30 3 -4 -1 -8 -8 -8 -7 0 -19 -9 -26 -21 -9
-13 -9 -18 -2 -14 7 4 7 -1 -2 -14 -7 -12 -16 -21 -21 -21 -4 0 -3 -9 3 -21
10 -17 6 -25 -25 -55 -25 -23 -39 -46 -41 -67 -7 -66 -37 -197 -43 -193 -4 3
-8 -6 -9 -19 -1 -13 3 -27 9 -30 7 -5 6 -11 -1 -21 -7 -8 -10 -30 -6 -53 4
-28 1 -43 -10 -52 -13 -11 -11 -14 15 -25 17 -7 31 -20 31 -29 0 -8 4 -15 10
-15 5 0 7 -6 5 -13 -3 -6 11 -28 30 -48 19 -20 37 -48 41 -63 3 -14 9 -24 13
-22 3 2 14 -1 23 -8 13 -10 16 -26 14 -77 -2 -36 -8 -74 -13 -85 -6 -10 -8
-25 -6 -32 3 -7 -1 -10 -10 -6 -8 3 -18 1 -21 -5 -4 -6 -14 -7 -23 -4 -11 4
-14 3 -9 -5 4 -7 0 -19 -8 -27 -8 -9 -13 -22 -10 -30 4 -8 1 -15 -5 -15 -6 0
-11 6 -11 14 0 7 -9 16 -19 19 -15 3 -7 -13 30 -64 27 -38 49 -77 49 -87 0
-10 -11 -29 -25 -42 -13 -12 -22 -26 -20 -31 3 -4 1 -9 -3 -11 -14 -5 -41 -98
-28 -98 7 0 7 -3 -1 -8 -14 -9 -36 -143 -35 -204 1 -28 -2 -36 -14 -31 -7 3
-14 0 -14 -5 0 -6 8 -13 18 -16 14 -5 17 -17 17 -70 0 -56 -2 -62 -12 -43 -12
22 -12 22 -12 -3 -1 -14 3 -31 8 -39 13 -21 3 -38 -22 -37 -16 1 -21 7 -19 21
10 74 10 115 0 115 -6 0 -3 9 8 21 14 16 15 22 5 28 -10 7 -12 34 -7 122 8
149 8 152 22 166 9 10 8 20 -4 48 -9 19 -20 35 -24 35 -4 0 -5 7 -2 15 10 24
-8 17 -34 -13 -22 -26 -23 -26 -11 -2 18 37 39 49 66 39 26 -10 31 2 8 21 -9
7 -15 8 -15 2 0 -5 -8 -8 -19 -5 -14 3 -25 -7 -44 -42 -15 -25 -23 -53 -20
-62 4 -10 2 -14 -4 -10 -12 8 -36 -40 -27 -55 5 -7 2 -8 -5 -4 -8 5 -14 0 -18
-13 -3 -12 -13 -21 -22 -22 -12 0 -11 -2 4 -9 11 -5 14 -9 8 -9 -8 -1 -11 -11
-6 -31 5 -28 0 -34 -27 -32 -3 0 -6 -7 -6 -16 -1 -9 -5 -26 -9 -36 -6 -13 -5
-17 2 -13 7 5 9 -1 5 -15 -4 -16 -2 -19 8 -13 9 5 11 4 6 -4 -4 -6 -11 -9 -16
-6 -9 6 -22 -23 -15 -35 3 -4 0 -32 -6 -61 -6 -30 -10 -70 -10 -89 0 -22 -3
-30 -8 -22 -7 11 -9 11 -14 -2 -3 -8 -1 -16 5 -18 8 -3 8 -13 0 -38 -7 -18
-12 -43 -12 -56 0 -12 -6 -25 -12 -27 -9 -4 -9 -6 -1 -6 6 -1 9 -9 6 -20 -3
-10 0 -22 6 -25 6 -4 11 -13 11 -19 0 -7 -4 -6 -10 3 -9 13 -12 13 -21 -3 -6
-9 -14 -15 -20 -12 -5 4 -9 1 -9 -4 0 -10 14 -15 33 -12 4 0 7 -6 7 -14 0 -8
-7 -15 -15 -15 -8 0 -15 -4 -15 -9 0 -5 -3 -16 -6 -24 -3 -10 1 -17 12 -19 16
-3 17 -4 1 -20 -9 -9 -17 -24 -17 -33 0 -9 -5 -25 -11 -36 -7 -15 -7 -24 1
-34 14 -16 4 -55 -13 -55 -30 1 -35 15 -25 75 5 33 10 120 12 193 3 87 8 137
16 148 10 11 10 23 3 47 -7 22 -6 40 1 56 7 16 6 28 -2 41 -6 10 -8 20 -6 23
11 10 14 117 4 117 -6 0 -10 7 -10 15 0 8 5 15 10 15 16 0 12 126 -5 143 -8 8
-12 16 -10 18 5 5 15 64 21 123 5 47 4 49 -13 35 -16 -13 -17 -12 -4 4 7 9 20
17 27 17 8 0 14 4 14 9 0 5 -10 7 -22 3 -18 -4 -20 -2 -16 16 4 12 3 22 0 22
-13 0 -73 -75 -63 -78 6 -2 11 -10 11 -18 0 -8 -6 -11 -15 -8 -8 4 -23 0 -32
-7 -12 -10 -15 -10 -9 -1 4 6 2 12 -3 12 -6 0 -11 -4 -11 -10 0 -5 -5 -9 -10
-7 -11 2 -93 -143 -86 -151 3 -2 11 0 18 4 22 14 37 13 31 -2 -3 -7 -8 -13
-11 -12 -4 0 -18 -1 -32 -2 -18 -2 -20 -4 -7 -7 18 -5 18 -5 22 -38 1 -12 8
-31 15 -44 11 -22 10 -23 -6 -17 -10 4 -21 1 -26 -6 -6 -10 -8 -10 -8 0 0 6
-5 12 -10 12 -7 0 -7 -7 1 -21 11 -21 0 -38 -24 -39 -5 0 -6 -4 -3 -9 3 -5 16
-7 27 -4 19 5 20 3 14 -18 -4 -13 -13 -33 -19 -44 -7 -11 -15 -30 -19 -43 -4
-18 -2 -22 9 -18 12 5 14 1 9 -17 -6 -18 -5 -20 6 -9 7 6 16 12 21 12 10 0 -3
-33 -16 -42 -6 -4 -12 -12 -12 -18 -1 -5 -2 -14 -3 -20 0 -5 -9 -6 -18 -3 -12
5 -15 2 -10 -10 4 -10 2 -17 -5 -17 -7 0 -6 -5 2 -15 10 -12 9 -15 -6 -16 -11
-1 -25 -1 -31 0 -7 1 -13 -5 -13 -14 0 -8 -5 -15 -11 -15 -7 0 -10 14 -7 35 2
19 1 35 -3 35 -12 0 -20 52 -10 64 6 7 8 21 5 33 -3 12 2 32 11 46 15 24 15
26 -5 32 -15 5 -20 13 -17 26 3 12 0 19 -10 19 -9 0 -11 5 -7 12 5 7 9 21 9
31 1 10 8 23 16 28 11 7 8 9 -9 9 -14 0 -21 4 -17 11 4 5 0 18 -8 27 -9 9 -17
22 -19 27 -2 6 -11 10 -20 9 -25 -1 -22 15 7 42 17 15 21 25 13 30 -6 4 -17
-1 -25 -11 -7 -11 -13 -14 -13 -8 0 7 5 15 10 18 19 12 10 26 -12 19 -22 -6
-22 -6 -5 19 21 32 23 48 2 21 -11 -14 -15 -16 -15 -4 -1 12 -3 12 -14 -3 -14
-18 -32 -24 -21 -7 3 6 -4 11 -17 11 -17 1 -18 3 -5 6 9 2 17 9 17 14 0 13
-27 11 -35 -2 -4 -6 -13 -8 -21 -5 -8 3 -19 -4 -25 -15 -9 -17 -7 -21 10 -26
24 -6 29 -23 7 -23 -17 0 -29 -27 -14 -32 14 -5 -12 -48 -29 -48 -21 0 -15
-21 7 -27 13 -3 20 -14 20 -29 0 -13 4 -24 8 -24 4 0 13 -15 20 -32 l12 -33
-20 25 -20 25 -6 -22 c-7 -27 -35 -39 -49 -20 -5 7 -16 12 -22 10 -19 -7 -16
18 5 33 10 8 12 13 5 14 -7 0 -13 9 -13 19 0 11 -6 26 -13 33 -8 7 -17 20 -20
28 -4 8 -5 3 -2 -13 5 -27 -8 -37 -21 -16 -4 8 -9 7 -15 -2 -7 -11 -9 -10 -9
4 0 22 -31 20 -38 -2 -3 -10 0 -12 13 -7 16 6 17 2 11 -34 -5 -33 -4 -38 9
-34 8 4 15 1 15 -6 0 -8 -11 -11 -30 -8 -20 3 -30 0 -30 -9 0 -7 7 -13 16 -13
13 0 14 -3 4 -15 -6 -8 -9 -19 -5 -25 4 -7 0 -10 -10 -8 -10 2 -20 -2 -22 -9
-3 -7 3 -10 14 -7 16 4 51 -31 41 -41 -11 -11 -58 -16 -58 -6 0 6 -6 11 -14
11 -8 0 -12 9 -11 24 2 19 -1 23 -16 19 -10 -3 -19 0 -19 6 0 6 -7 11 -15 11
-8 0 -15 9 -15 20 0 11 -5 20 -10 20 -7 0 -7 6 0 20 9 16 8 20 -5 20 -15 0
-18 -9 -15 -47 1 -20 -1 -21 -29 -10 -33 12 -48 6 -35 -15 13 -20 4 -82 -14
-95 -9 -8 -11 -13 -4 -13 7 0 12 -4 12 -10 0 -5 -7 -7 -15 -4 -8 4 -15 1 -15
-5 0 -6 5 -11 10 -11 18 0 11 -28 -11 -44 -16 -10 -19 -19 -12 -31 9 -15 12
-14 26 8 9 14 22 44 29 66 7 23 16 41 21 41 4 0 1 -16 -8 -36 -11 -26 -12 -41
-4 -55 5 -11 6 -19 2 -18 -23 4 -34 -3 -31 -18 3 -21 -21 -57 -40 -61 -9 -2
-11 4 -7 18 5 14 1 26 -9 33 -9 7 -17 30 -19 52 -1 22 -6 45 -10 52 -4 6 -4
18 -1 27 4 9 1 16 -6 16 -9 0 -9 4 1 17 13 15 11 16 -13 9 -17 -4 -28 -2 -28
4 0 5 -6 10 -14 10 -17 0 -16 -49 1 -68 7 -7 13 -18 13 -23 0 -13 -18 -11 -23
4 -2 6 -8 8 -13 4 -5 -4 -2 -12 5 -16 11 -7 11 -10 -1 -17 -8 -5 -17 -19 -21
-32 -4 -17 -2 -21 7 -13 16 14 38 -2 30 -22 -3 -9 -10 -17 -15 -17 -5 0 -9 -7
-9 -15 0 -14 3 -14 24 0 16 11 26 13 31 5 3 -5 -1 -13 -9 -16 -11 -4 -15 -19
-14 -56 0 -33 -4 -53 -13 -59 -8 -5 -15 -4 -17 1 -5 13 -32 13 -32 0 0 -5 -9
-10 -20 -10 -23 0 -27 15 -5 24 8 3 15 12 15 21 0 12 -4 11 -20 -5 -11 -11
-26 -17 -35 -13 -12 4 -13 9 -6 16 8 8 1 15 -22 25 -17 9 -36 14 -40 13 -5 -1
-11 8 -14 19 -4 17 -11 20 -29 16 -18 -5 -24 -2 -24 10 0 12 -7 15 -29 12 -21
-3 -28 -1 -24 9 3 9 0 11 -10 7 -8 -3 -18 0 -22 5 -3 6 -11 9 -16 6 -5 -4 -9
-1 -9 5 0 6 -4 9 -9 6 -4 -3 -7 7 -5 23 3 25 0 28 -16 24 -13 -4 -20 0 -20 9
0 25 -25 16 -26 -9 -1 -15 3 -23 10 -20 7 3 11 -7 11 -26 0 -19 9 -41 23 -56
12 -13 22 -29 22 -36 0 -6 8 -20 18 -31 29 -32 82 -112 82 -122 0 -5 7 -13 16
-16 16 -6 16 -29 0 -26 -5 1 -13 -4 -18 -12 -5 -8 -6 -3 -2 15 8 33 -7 35 -30
4 -9 -12 -14 -16 -11 -10 3 7 8 29 10 50 5 38 4 38 -11 13 -15 -25 -15 -25 -8
-1 4 14 2 21 -4 17 -5 -3 -16 1 -23 10 -11 14 -14 13 -26 -8 -12 -20 -14 -20
-10 -3 3 11 7 29 11 40 3 11 -2 3 -12 -17 -19 -42 -32 -49 -32 -18 0 11 4 20
9 20 5 0 12 8 15 17 4 10 4 14 0 11 -4 -4 -22 6 -42 22 -29 24 -38 27 -53 17
-23 -14 -34 -38 -13 -30 8 3 14 -1 14 -10 0 -21 -40 -10 -40 12 -1 15 -1 15
-10 -1 -6 -10 -18 -14 -29 -11 -25 6 -16 33 10 33 10 0 19 5 19 11 0 6 -9 9
-20 6 -11 -3 -20 -2 -20 2 0 4 -6 8 -13 8 -9 0 -12 -9 -9 -24 5 -27 -3 -29
-25 -8 -20 21 -33 10 -33 -28 0 -18 -7 -42 -15 -54 -14 -20 -14 -23 6 -33 13
-8 18 -17 14 -28 -5 -14 -4 -15 6 -4 21 20 28 14 16 -12 -8 -16 -14 -20 -19
-13 -13 20 -55 -13 -82 -65 -31 -59 -32 -67 -7 -44 14 13 21 14 27 5 4 -7 1
-17 -8 -23 -8 -6 -13 -17 -10 -24 2 -7 -2 -19 -8 -28 -7 -8 -10 -17 -7 -20 3
-3 17 14 32 38 14 24 24 33 20 21 -4 -15 -2 -23 5 -23 12 0 9 -42 -6 -93 -5
-16 -3 -17 15 -8 21 12 31 -2 10 -14 -11 -7 21 -41 84 -89 32 -25 39 -27 54
-15 11 10 14 10 9 2 -6 -10 478 -13 2398 -13 l2406 0 0 644 0 644 -40 20 c-22
11 -40 15 -40 10 0 -21 -81 89 -90 122 -6 19 -10 78 -10 131 l0 95 53 105 c54
106 76 154 109 244 17 47 18 122 18 1577 l0 1528 -1775 0 c-1176 0 -1775 -3
-1776 -10z m58 -802 c-3 -8 -6 -5 -6 6 -1 11 2 17 5 13 3 -3 4 -12 1 -19z
m702 -886 c-8 -9 -2 -7 12 6 28 25 45 28 52 10 4 -10 7 -10 18 0 20 18 39 14
39 -9 0 -11 11 -40 25 -65 33 -59 32 -68 -7 -60 -79 16 -166 83 -165 128 0 9
4 15 8 13 4 -3 10 3 14 13 8 16 8 16 12 -1 3 -10 -1 -26 -8 -35z m906 -18 c0
-13 -7 -19 -23 -20 -32 -2 -37 -11 -10 -17 30 -8 46 -36 37 -67 -6 -23 -7 -23
-8 8 -1 17 -6 32 -12 32 -6 0 -9 -7 -5 -15 3 -8 1 -15 -4 -15 -6 0 -10 6 -10
13 0 9 -3 8 -9 -2 -5 -7 -13 -11 -19 -7 -6 3 -13 2 -17 -4 -3 -5 -14 -10 -23
-10 -15 0 -15 2 -2 10 10 6 11 10 3 10 -7 0 -13 6 -13 14 0 8 -10 18 -22 22
-20 6 -21 7 -4 20 10 7 16 17 12 22 -3 5 0 9 7 9 7 0 24 4 40 8 22 6 27 4 27
-10 0 -15 2 -15 16 -4 13 10 17 10 25 -2 7 -12 9 -11 9 3 0 9 -5 19 -10 21 -6
3 -5 4 2 3 7 -2 13 -11 13 -22z m1263 -43 c3 -8 -1 -12 -9 -9 -7 2 -15 10 -17
17 -3 8 1 12 9 9 7 -2 15 -10 17 -17z m-407 -48 c25 -40 27 -49 14 -51 -28 -6
-64 7 -75 28 -11 20 5 70 22 70 5 0 22 -21 39 -47z m359 19 c0 -20 -36 -59
-45 -50 -7 7 27 68 38 68 4 0 7 -8 7 -18z m-1263 -38 c-3 -3 -12 -4 -19 -1 -8
3 -5 6 6 6 11 1 17 -2 13 -5z m-1337 -44 c0 -3 -21 -12 -47 -20 -27 -7 -59
-17 -72 -21 -35 -12 -18 1 35 25 45 21 84 28 84 16z m-260 -99 c0 -5 -7 -11
-15 -15 -15 -5 -20 5 -8 17 9 10 23 9 23 -2z m1550 -75 c0 -3 -4 -8 -10 -11
-5 -3 -10 -1 -10 4 0 6 5 11 10 11 6 0 10 -2 10 -4z m-1760 -26 c0 -5 -2 -10
-4 -10 -3 0 -8 5 -11 10 -3 6 -1 10 4 10 6 0 11 -4 11 -10z m1704 -12 c-5 -7
-3 -8 6 -3 17 11 61 15 56 6 -3 -4 2 -21 11 -37 8 -16 17 -56 19 -89 3 -32 11
-66 19 -75 8 -9 15 -22 15 -28 0 -7 6 -12 13 -12 6 -1 -1 -7 -18 -14 -20 -8
-25 -15 -17 -20 7 -4 10 -11 7 -16 -3 -4 4 -6 15 -3 11 3 27 -1 36 -8 14 -12
14 -14 -2 -26 -14 -10 -14 -13 -3 -14 61 -3 83 -13 49 -22 -13 -3 -18 -1 -13
6 4 7 -1 6 -10 -2 -11 -9 -17 -10 -17 -2 0 6 -4 11 -10 11 -5 0 -7 -7 -3 -16
3 -8 12 -13 19 -10 16 6 28 -10 14 -19 -6 -4 -8 -11 -5 -16 4 -5 1 -9 -5 -9
-7 0 -9 7 -6 16 3 9 1 14 -5 12 -6 -2 -11 -8 -11 -13 0 -6 -4 -18 -9 -27 -7
-13 -6 -18 4 -18 7 0 18 -5 24 -11 14 -14 5 -42 -10 -32 -6 4 -8 -3 -3 -20 3
-15 1 -29 -5 -33 -8 -4 -7 -9 2 -15 10 -6 7 -8 -9 -6 -13 2 -28 10 -33 18 -7
10 -9 8 -7 -11 2 -14 8 -28 13 -32 6 -4 -4 -8 -20 -8 -24 0 -34 -7 -49 -34
-10 -20 -16 -43 -12 -52 4 -11 -1 -25 -14 -39 -12 -12 -20 -26 -19 -31 6 -32
-2 -94 -12 -89 -6 4 -10 1 -8 -6 4 -33 -1 -39 -28 -35 -14 3 -31 10 -37 16
-12 12 -110 13 -153 1 -26 -8 -37 -6 -58 11 -71 56 -73 154 -5 271 49 86 58
118 36 136 -9 8 -16 22 -16 32 0 10 -8 20 -19 24 -13 4 -18 14 -16 38 2 17 3
44 4 60 1 17 7 27 16 27 17 0 20 16 6 24 -5 4 -11 0 -14 -6 -2 -7 -8 -9 -13
-5 -5 4 -2 12 5 17 8 4 14 22 13 39 0 20 4 31 13 31 9 0 12 6 9 15 -4 9 0 15
10 15 8 0 20 9 26 20 6 10 16 17 23 14 7 -2 32 9 55 26 23 16 48 30 56 30 24
0 46 12 46 24 0 10 20 22 58 35 2 1 0 -4 -4 -11z m-363 -211 c-10 -9 -11 -8
-5 6 3 10 9 15 12 12 3 -3 0 -11 -7 -18z m-64 -83 c-3 -3 -12 -4 -19 -1 -8 3
-5 6 6 6 11 1 17 -2 13 -5z m-1724 -50 c9 -10 -253 -134 -283 -134 -10 0 -22
-4 -25 -10 -10 -16 -45 -12 -45 5 0 9 8 14 23 13 12 -1 61 17 109 40 48 23 91
42 96 42 4 0 30 11 58 24 54 28 58 29 67 20z m2417 -28 c0 -2 -8 -10 -17 -17
-16 -13 -17 -12 -4 4 13 16 21 21 21 13z m-2920 -90 c0 -2 -7 -7 -16 -10 -8
-3 -12 -2 -9 4 6 10 25 14 25 6z m-45 -16 c3 -5 -1 -10 -9 -10 -9 0 -16 5 -16
10 0 6 4 10 9 10 6 0 13 -4 16 -10z m3065 -26 c0 -2 -7 -4 -15 -4 -8 0 -15 4
-15 10 0 5 7 7 15 4 8 -4 15 -8 15 -10z m-177 -15 c-4 -15 -8 -17 -14 -8 -6
11 4 28 18 29 0 0 -1 -9 -4 -21z m-2976 5 c-3 -3 -12 -4 -19 -1 -8 3 -5 6 6 6
11 1 17 -2 13 -5z m3174 -34 c-20 -17 -20 -20 -5 -20 9 0 15 -3 11 -6 -3 -4
-14 -3 -24 1 -16 6 -16 8 6 26 13 10 26 19 30 19 3 -1 -5 -10 -18 -20z m1000
-32 c-12 -19 -11 -20 4 -14 15 5 16 4 6 -8 -7 -8 -10 -19 -7 -24 3 -5 -1 -9
-9 -9 -8 0 -15 4 -15 8 0 5 -11 3 -25 -3 -18 -8 -22 -14 -14 -24 11 -14 -4
-29 -20 -20 -5 3 -11 -3 -14 -15 -5 -17 -3 -18 9 -8 8 7 14 8 13 3 -4 -21 2
-33 18 -36 15 -3 15 -4 -1 -21 -10 -9 -23 -14 -29 -10 -7 4 -4 9 9 14 17 7 17
8 1 8 -10 1 -15 6 -12 11 3 6 1 10 -5 10 -6 0 -8 -11 -6 -25 4 -21 1 -25 -20
-25 -14 0 -22 4 -19 10 3 6 -2 13 -12 17 -23 9 -48 33 -34 33 6 0 10 3 10 8
-3 19 2 32 12 32 7 0 20 10 30 22 11 11 19 16 19 9 0 -7 5 -9 10 -6 14 9 12
21 -6 39 -8 9 -11 16 -6 16 5 0 15 -7 22 -15 7 -8 17 -15 23 -15 7 0 7 4 -1
12 -20 20 -13 36 18 40 17 3 30 1 30 -4 0 -4 5 -8 11 -8 7 0 9 9 6 21 -5 17
-3 19 6 10 9 -9 8 -17 -2 -33z m-1986 -8 c-3 -5 -14 -10 -23 -9 -14 0 -13 2 3
9 27 11 27 11 20 0z m1832 -55 c0 -8 -4 -15 -9 -15 -4 0 -8 7 -8 15 0 8 4 15
8 15 5 0 9 -7 9 -15z m-1 -112 c-3 -4 4 -13 16 -21 13 -7 15 -11 6 -8 -21 6
-32 -20 -12 -28 9 -3 12 -1 9 4 -3 6 -1 10 4 10 6 0 11 -5 11 -10 0 -6 6 -5
14 2 8 8 10 15 4 19 -21 14 20 16 43 3 23 -14 23 -14 2 -9 -14 4 -23 2 -23 -4
0 -6 6 -11 14 -11 8 0 17 -7 20 -16 3 -8 14 -14 23 -13 30 4 73 -19 67 -35 -3
-8 -1 -17 4 -20 5 -3 8 6 6 20 -2 23 0 24 28 20 16 -2 33 -8 36 -12 4 -4 -5
-4 -20 -2 -25 5 -32 -1 -30 -23 1 -4 -8 -15 -20 -25 -12 -11 -18 -14 -15 -7 9
14 -2 45 -14 38 -4 -3 -17 3 -29 15 -21 21 -27 16 -10 -10 5 -8 14 -16 20 -16
5 -1 15 -2 21 -3 5 0 7 -6 4 -11 -4 -6 -10 -8 -14 -6 -4 3 -8 -4 -8 -15 -1
-11 2 -17 6 -15 4 3 13 1 21 -5 9 -5 10 -9 4 -9 -7 0 -15 -7 -18 -16 -5 -12
-2 -15 10 -10 14 5 15 4 4 -9 -7 -8 -17 -12 -23 -8 -6 4 -7 1 -3 -6 5 -7 15
-10 25 -6 12 5 13 3 5 -5 -16 -16 -52 -3 -59 21 -7 21 -35 26 -36 7 0 -10 -2
-10 -5 -1 -3 7 -12 9 -20 6 -10 -4 -12 0 -8 10 4 12 -2 18 -20 23 -14 3 -26
10 -26 14 0 5 -11 7 -24 4 -18 -3 -26 1 -31 16 -4 11 -11 17 -17 14 -7 -4 -8
-2 -4 5 4 6 12 9 17 6 13 -9 11 9 -3 24 -10 11 -10 13 0 7 8 -5 12 0 12 14 0
15 -5 20 -14 17 -25 -10 -7 19 20 31 25 12 33 32 12 32 -9 0 -8 4 2 10 18 11
26 13 16 3z m-533 -90 c-8 -21 -29 -15 -41 12 -15 32 -15 35 -1 35 5 0 7 -5 3
-12 -4 -7 -3 -8 4 -4 15 9 16 36 1 36 -5 0 -7 5 -3 12 10 15 44 -59 37 -79z
m487 58 c0 -5 -7 -12 -16 -15 -14 -5 -15 -4 -4 9 14 17 20 19 20 6z m-30 -44
c0 -4 -6 -2 -14 5 -8 7 -12 17 -9 22 5 8 23 -12 23 -27z m301 -108 c-9 -22
-10 -22 -10 -3 -1 11 2 24 6 27 12 12 14 0 4 -24z m-151 -69 c12 -7 10 -9 -8
-7 -12 0 -22 5 -22 9 0 11 12 10 30 -2z m-1093 -460 c-3 -21 -44 -21 -147 2
-14 3 -30 36 -24 49 2 3 42 -3 89 -15 63 -16 85 -25 82 -36z m216 29 c18 -24
11 -57 -12 -63 -9 -2 -31 -3 -48 -2 -18 1 -45 3 -60 4 -19 2 -32 10 -40 27
-13 29 -7 35 47 46 68 13 98 10 113 -12z m-1000 -203 c4 -10 1 -13 -9 -9 -7 3
-14 9 -14 14 0 14 17 10 23 -5z m-8 -36 c3 -5 2 -10 -4 -10 -5 0 -13 5 -16 10
-3 6 -2 10 4 10 5 0 13 -4 16 -10z m43 -9 c3 -8 -1 -12 -9 -9 -7 2 -15 10 -17
17 -3 8 1 12 9 9 7 -2 15 -10 17 -17z m22 -24 c0 -17 73 -97 88 -97 7 0 12
-10 12 -22 0 -16 3 -19 8 -10 6 9 12 5 20 -14 8 -16 18 -24 27 -20 8 3 17 -3
20 -15 5 -13 12 -18 22 -15 9 4 21 2 28 -4 11 -9 12 -6 7 12 l-6 23 30 -20
c43 -28 56 -43 44 -50 -5 -3 -10 -11 -10 -17 0 -7 4 -7 13 1 11 8 18 7 31 -7
9 -10 13 -22 9 -25 -3 -4 -1 -7 6 -7 8 0 11 -8 8 -20 -3 -12 -1 -17 5 -14 12
7 49 -26 42 -37 -3 -5 0 -9 6 -9 6 0 8 -4 5 -10 -3 -5 -1 -10 4 -10 6 0 11
-16 11 -35 0 -38 -14 -44 -52 -24 -15 8 -23 8 -32 -1 -8 -8 -7 -10 7 -5 12 5
17 2 17 -9 0 -25 -50 -10 -81 25 -14 16 -29 26 -32 23 -9 -9 -48 16 -42 27 4
5 1 9 -4 9 -6 0 -10 3 -10 8 3 19 -2 33 -11 27 -5 -3 -10 -1 -10 4 0 6 -8 11
-17 10 -13 0 -14 -2 -4 -6 10 -4 11 -7 1 -13 -7 -4 -14 -18 -15 -31 -1 -13 -3
-30 -4 -36 -4 -41 -43 25 -67 112 -8 28 -14 73 -14 102 0 28 -5 55 -11 59 -7
4 -10 -5 -8 -28 2 -18 -1 -39 -5 -47 -5 -7 -4 -16 1 -20 5 -3 9 -25 7 -48 -1
-24 3 -43 8 -43 6 0 7 -11 4 -25 -4 -14 -2 -25 3 -25 6 0 0 -10 -12 -23 -12
-13 -37 -40 -55 -60 -19 -21 -39 -34 -45 -30 -6 4 -1 15 15 28 31 26 83 103
76 111 -3 3 -15 -12 -27 -32 -12 -20 -35 -41 -51 -47 -17 -6 -30 -15 -30 -19
0 -4 -7 -5 -16 -1 -13 5 -11 9 12 21 36 18 64 42 64 54 0 5 -12 0 -27 -12 -43
-34 -41 -3 1 32 21 17 35 33 32 36 -3 2 -13 -1 -21 -8 -9 -7 -31 -15 -48 -16
l-32 -3 30 14 c17 7 39 23 50 35 l20 22 -35 -19 c-25 -14 -43 -18 -65 -13 -16
4 -22 8 -12 9 18 1 97 38 97 46 0 2 -15 -2 -34 -10 -49 -21 -55 4 -7 27 l36
16 -30 2 c-27 1 -28 2 -12 13 50 32 53 37 20 27 -47 -12 -43 10 5 32 l37 16
-32 -5 c-40 -7 -43 9 -5 24 l27 11 -27 1 c-32 1 -39 21 -8 21 11 0 20 7 20 16
0 11 -6 13 -19 9 -11 -3 -22 -1 -26 5 -4 6 -3 10 2 9 4 -1 19 -1 33 0 l24 1
-21 15 c-14 10 -32 13 -48 9 -15 -4 -25 -2 -25 4 0 6 21 13 48 15 26 2 50 4
55 5 4 1 7 -4 7 -11z m-90 -41 c0 -9 -39 -13 -51 -5 -10 6 -4 9 19 9 17 0 32
-2 32 -4z m-624 -46 c0 -11 -4 -20 -8 -20 -10 0 -11 24 -1 33 9 9 9 10 9 -13z
m604 0 c-20 -13 -43 -13 -35 0 3 6 16 10 28 10 18 0 19 -2 7 -10z m-995 -41
c-3 -4 -12 -6 -20 -3 -8 4 -13 10 -10 15 3 4 12 6 20 3 8 -4 13 -10 10 -15z
m356 -12 c-10 -9 -11 -8 -5 6 3 10 9 15 12 12 3 -3 0 -11 -7 -18z m614 13 c3
-5 -1 -10 -10 -10 -9 0 -13 5 -10 10 3 6 8 10 10 10 2 0 7 -4 10 -10z m-1 -50
c-22 -9 -29 -6 -20 9 4 6 14 7 23 4 15 -6 14 -7 -3 -13z m-890 -45 c-4 -8 -11
-15 -16 -15 -6 0 -5 6 2 15 7 8 14 15 16 15 2 0 1 -7 -2 -15z m876 0 c0 -2 -7
-5 -15 -9 -9 -3 -15 0 -15 9 0 9 6 12 15 9 8 -4 15 -7 15 -9z m43 8 c-7 -2
-19 -2 -25 0 -7 3 -2 5 12 5 14 0 19 -2 13 -5z m-1023 -22 c0 -12 -20 -25 -27
-18 -7 7 6 27 18 27 5 0 9 -4 9 -9z m994 -32 c-28 -11 -54 -10 -54 2 0 5 4 8
9 4 5 -3 12 -1 15 4 3 5 16 7 28 3 21 -5 21 -6 2 -13z m-1077 -131 c-3 -8 -6
-5 -6 6 -1 11 2 17 5 13 3 -3 4 -12 1 -19z m56 5 c-7 -2 -13 -11 -13 -19 0 -8
-4 -14 -10 -14 -12 0 -12 3 -4 24 3 9 14 16 23 15 10 0 11 -2 4 -6z m1031 -18
c-4 -8 -8 -15 -10 -15 -2 0 -4 7 -4 15 0 8 4 15 10 15 5 0 7 -7 4 -15z m201
-9 c8 3 -13 -23 -45 -58 -32 -34 -62 -59 -66 -55 -4 4 9 24 29 45 20 21 37 42
37 48 0 15 24 37 28 25 2 -5 9 -8 17 -5z m8 -33 c-5 -12 -2 -15 10 -10 9 3 17
2 17 -3 0 -6 -6 -10 -13 -10 -7 0 -18 -10 -25 -21 -10 -15 -17 -18 -24 -11 -7
7 -4 20 11 41 25 34 34 40 24 14z m-198 -3 c3 -5 -3 -10 -14 -10 -12 0 -21 5
-21 10 0 6 6 10 14 10 8 0 18 -4 21 -10z m-1071 -53 c-3 -9 -10 -17 -15 -17
-14 0 -11 28 4 33 7 3 4 6 -6 6 -11 1 -15 6 -11 12 10 17 36 -14 28 -34z
m-224 19 c0 -3 -4 -8 -10 -11 -5 -3 -10 -1 -10 4 0 6 5 11 10 11 6 0 10 -2 10
-4z m1320 -6 c0 -5 -2 -10 -4 -10 -3 0 -8 5 -11 10 -3 6 -1 10 4 10 6 0 11 -4
11 -10z m194 -16 c3 -8 2 -12 -4 -9 -6 3 -10 -1 -10 -9 0 -9 -7 -16 -16 -16
-15 0 -13 10 9 38 12 15 14 15 21 -4z m-1438 -45 c-9 -19 -15 -26 -16 -16 0
20 -11 22 -29 5 -10 -11 -12 -9 -9 7 2 12 13 21 26 23 12 2 22 10 22 20 0 11
3 13 10 6 7 -7 6 -21 -4 -45z m1154 35 c0 -8 -5 -12 -10 -9 -6 4 -8 11 -5 16
9 14 15 11 15 -7z m200 -27 c-18 -17 -44 -32 -58 -33 -26 -3 -26 -3 4 15 16
10 37 28 48 39 10 12 23 19 29 15 5 -3 -5 -19 -23 -36z m-1173 19 c-4 -10 -1
-13 9 -9 7 3 14 1 14 -4 0 -11 -34 -53 -44 -53 -5 0 -4 28 3 73 0 4 6 7 12 7
6 0 9 -7 6 -14z m1088 -5 c-6 -5 -21 -11 -35 -15 -21 -5 -20 -3 5 9 35 17 42
18 30 6z m181 -23 c-8 -13 -15 -27 -16 -33 0 -5 -5 -10 -11 -10 -7 0 -15 -7
-18 -15 -3 -8 -14 -16 -25 -18 -13 -2 -6 9 23 39 23 24 41 47 41 51 0 4 5 8
10 8 6 0 4 -10 -4 -22z m-57 -24 c-11 -12 -28 -20 -36 -17 -11 4 -10 10 8 29
11 12 28 20 36 17 11 -4 10 -10 -8 -29z m-1751 -10 c2 -15 1 -16 -6 -5 -6 8
-17 11 -27 7 -15 -5 -16 -4 -5 9 16 20 34 14 38 -11z m1826 -16 c-9 -13 -31
-34 -48 -48 -23 -18 -19 -11 14 26 46 51 66 64 34 22z m-364 -22 c0 -19 -4
-37 -9 -40 -5 -3 -9 12 -9 34 0 22 3 40 9 40 5 0 9 -15 9 -34z m-570 -6 c0 -5
-5 -10 -11 -10 -5 0 -7 5 -4 10 3 6 8 10 11 10 2 0 4 -4 4 -10z m765 1 c3 -5
2 -12 -3 -15 -5 -3 -9 1 -9 9 0 17 3 19 12 6z m-785 -33 c0 -4 -9 -8 -21 -8
-11 0 -18 4 -15 8 3 5 12 9 21 9 8 0 15 -4 15 -9z m955 -18 c3 -5 -1 -10 -10
-10 -9 0 -13 5 -10 10 3 6 8 10 10 10 2 0 7 -4 10 -10z m-1275 -10 c0 -5 -5
-10 -11 -10 -5 0 -7 5 -4 10 3 6 8 10 11 10 2 0 4 -4 4 -10z m334 -11 c16 -4
15 -8 -12 -38 -22 -26 -27 -37 -18 -47 6 -6 14 -10 18 -8 4 2 9 0 13 -5 3 -6
-4 -8 -17 -6 -13 3 -24 9 -26 15 -2 5 -16 8 -30 5 -26 -5 -26 -5 -4 6 26 14
30 33 5 25 -15 -5 -18 0 -17 27 1 27 5 33 30 37 16 3 31 3 34 -1 3 -4 13 -8
24 -10z m751 11 c-3 -5 -12 -10 -18 -10 -7 0 -6 4 3 10 19 12 23 12 15 0z
m110 0 c3 -5 -1 -10 -10 -10 -9 0 -13 5 -10 10 3 6 8 10 10 10 2 0 7 -4 10
-10z m-1625 -20 c0 -5 -4 -10 -9 -10 -6 0 -13 5 -16 10 -3 6 1 10 9 10 9 0 16
-4 16 -10z m1667 -5 c0 -8 -4 -12 -9 -9 -5 3 -6 10 -3 15 9 13 12 11 12 -6z
m59 -12 c-2 -10 -8 -18 -14 -18 -6 0 -14 -3 -18 -7 -20 -21 -24 -5 -4 17 28
29 39 32 36 8z m-86 -7 c0 -2 -7 -7 -16 -10 -8 -3 -12 -2 -9 4 6 10 25 14 25
6z m-1237 -26 c-3 -12 -8 -19 -11 -16 -5 6 5 36 12 36 2 0 2 -9 -1 -20z m1347
6 c0 -2 -8 -10 -17 -17 -16 -13 -17 -12 -4 4 13 16 21 21 21 13z m-1300 -15
c0 -10 -26 -9 -36 2 -4 4 2 7 14 7 12 0 22 -4 22 -9z m920 -6 c0 -8 -4 -15
-10 -15 -5 0 -7 7 -4 15 4 8 8 15 10 15 2 0 4 -7 4 -15z m440 12 c0 -2 -19
-21 -42 -42 l-43 -40 40 43 c36 39 45 47 45 39z m-140 -17 c0 -5 -2 -10 -4
-10 -3 0 -8 5 -11 10 -3 6 -1 10 4 10 6 0 11 -4 11 -10z m40 -13 c0 -2 -10
-12 -22 -23 l-23 -19 19 23 c18 21 26 27 26 19z m139 -9 c-2 -2 -17 -14 -34
-28 l-30 -25 24 28 c14 15 29 27 34 27 6 0 8 -1 6 -2z m-2039 -15 c0 -5 -10
-19 -21 -33 l-20 -25 16 33 c15 30 25 41 25 25z m890 3 c0 -11 -19 -15 -25 -6
-3 5 1 10 9 10 9 0 16 -2 16 -4z m-1475 -27 c-4 -5 -15 -9 -26 -9 -26 0 -17
15 10 17 12 1 19 -2 16 -8z m1495 7 c0 -3 -4 -8 -10 -11 -5 -3 -10 -1 -10 4 0
6 5 11 10 11 6 0 10 -2 10 -4z m1150 -10 c0 -2 -8 -10 -17 -17 -16 -13 -17
-12 -4 4 13 16 21 21 21 13z m-1124 -28 c-3 -13 -5 -25 -5 -28 -1 -3 -5 1 -10
9 -6 9 -5 19 2 27 16 18 17 17 13 -8z m-1126 -53 c0 -8 -4 -15 -10 -15 -5 0
-10 7 -10 15 0 8 5 15 10 15 6 0 10 -7 10 -15z m1102 -15 c4 -3 -1 -11 -11
-17 -16 -10 -17 -8 -13 13 2 14 7 21 11 17 3 -4 9 -10 13 -13z m1195 0 c1 -11
-2 -22 -6 -24 -6 -4 -7 26 -2 42 3 8 7 -1 8 -18z m-217 6 c0 -2 -8 -10 -17
-17 -16 -13 -17 -12 -4 4 13 16 21 21 21 13z m-2520 -26 c0 -5 -4 -10 -10 -10
-5 0 -10 5 -10 10 0 6 5 10 10 10 6 0 10 -4 10 -10z m477 -20 c13 -33 6 -81
-8 -58 -4 7 -6 23 -2 36 4 16 1 22 -8 20 -7 -2 -15 5 -17 15 -6 29 23 19 35
-13z m1397 -38 c3 -5 -1 -9 -9 -9 -8 0 -15 4 -15 9 0 4 4 8 9 8 6 0 12 -4 15
-8z m-1851 -27 c-3 -9 -8 -14 -10 -11 -3 3 -2 9 2 15 9 16 15 13 8 -4z m52
-15 c3 -5 1 -10 -4 -10 -6 0 -11 5 -11 10 0 6 2 10 4 10 3 0 8 -4 11 -10z
m2029 -39 c3 -5 -1 -11 -9 -14 -9 -4 -12 -1 -8 9 6 16 10 17 17 5z m-2107 -43
c-3 -7 -5 -2 -5 12 0 14 2 19 5 13 2 -7 2 -19 0 -25z m2140 -10 c-3 -8 -6 -5
-6 6 -1 11 2 17 5 13 3 -3 4 -12 1 -19z m-2053 -13 c-4 -8 -8 -15 -10 -15 -2
0 -4 7 -4 15 0 8 4 15 10 15 5 0 7 -7 4 -15z m1439 -18 c3 -8 -1 -14 -9 -14
-15 0 -18 9 -7 20 9 9 10 9 16 -6z m1527 -57 c0 -5 -2 -10 -4 -10 -3 0 -8 5
-11 10 -3 6 -1 10 4 10 6 0 11 -4 11 -10z"/>
<path d="M3218 2733 c7 -3 16 -2 19 1 4 3 -2 6 -13 5 -11 0 -14 -3 -6 -6z"/>
<path d="M3188 2613 c7 -3 16 -2 19 1 4 3 -2 6 -13 5 -11 0 -14 -3 -6 -6z"/>
<path d="M3240 2570 c0 -5 5 -10 11 -10 5 0 7 5 4 10 -3 6 -8 10 -11 10 -2 0
-4 -4 -4 -10z"/>
<path d="M4380 2391 c0 -5 -10 -12 -22 -14 -13 -2 -6 -4 14 -4 30 0 36 3 27
14 -13 15 -19 17 -19 4z"/>
<path d="M4327 2347 c4 -6 0 -8 -9 -4 -15 5 -16 2 -8 -33 0 -3 5 3 11 13 5 9
16 17 24 17 8 0 16 4 19 9 3 5 -5 9 -19 9 -15 0 -22 -5 -18 -11z"/>
<path d="M4330 2311 c0 -5 7 -11 14 -14 10 -4 13 -1 9 9 -6 15 -23 19 -23 5z"/>
<path d="M2615 1210 c3 -5 8 -10 11 -10 2 0 4 5 4 10 0 6 -5 10 -11 10 -5 0
-7 -4 -4 -10z"/>
<path d="M1706 604 c-4 -9 -4 -19 -1 -22 3 -3 5 0 5 7 0 7 5 9 10 6 6 -3 10
-2 10 4 0 18 -18 21 -24 5z"/>
<path d="M1551 4324 c0 -11 3 -14 6 -6 3 7 2 16 -1 19 -3 4 -6 -2 -5 -13z"/>
<path d="M1846 3135 c-3 -8 -15 -15 -26 -15 -11 0 -20 -6 -20 -14 0 -12 5 -12
30 -3 18 7 30 19 30 29 0 22 -6 23 -14 3z"/>
<path d="M1630 3090 c-9 -6 -10 -10 -3 -10 6 0 15 5 18 10 8 12 4 12 -15 0z"/>
<path d="M1554 2914 c-18 -14 -18 -14 6 -3 31 14 36 19 24 19 -6 0 -19 -7 -30
-16z"/>
<path d="M1490 2888 c-16 -7 -20 -12 -12 -15 8 -3 21 2 30 11 19 18 17 19 -18
4z"/>
<path d="M1454 2821 c-17 -10 -46 -22 -64 -26 -29 -6 -31 -9 -16 -17 12 -7 21
-7 29 1 6 6 19 11 28 11 19 0 82 49 64 50 -5 0 -24 -9 -41 -19z"/>
<path d="M2565 2819 c-4 -5 -11 -6 -17 -3 -6 4 -8 2 -5 -3 5 -9 57 -7 57 2 0
9 -30 13 -35 4z"/>
<path d="M2640 2798 c-11 -22 -10 -22 4 -4 9 11 16 14 16 8 0 -7 5 -12 11 -12
13 0 7 22 -8 27 -7 3 -17 -6 -23 -19z"/>
<path d="M1275 2790 c-8 -13 5 -13 25 0 13 8 13 10 -2 10 -9 0 -20 -4 -23 -10z"/>
<path d="M2414 2753 c0 -13 8 -18 27 -18 15 0 32 8 38 18 7 11 8 17 1 17 -5 0
-10 -4 -10 -10 0 -5 -5 -10 -11 -10 -5 0 -7 5 -4 10 3 6 -4 10 -17 10 -16 0
-24 -6 -24 -17z"/>
<path d="M1030 2740 c0 -5 5 -10 10 -10 6 0 10 5 10 10 0 6 -4 10 -10 10 -5 0
-10 -4 -10 -10z"/>
<path d="M1172 2698 c-84 -42 -105 -49 -112 -38 -5 8 -11 12 -14 10 -2 -3 1
-13 8 -22 12 -17 19 -15 95 23 l82 42 50 -27 c59 -33 66 -27 8 7 l-41 25 28
16 c16 8 22 15 14 15 -8 1 -61 -22 -118 -51z"/>
<path d="M1155 2724 l-30 -14 30 6 c31 6 41 11 34 18 -2 2 -17 -2 -34 -10z"/>
<path d="M2396 2717 c3 -10 9 -15 12 -12 3 3 0 11 -7 18 -10 9 -11 8 -5 -6z"/>
<path d="M2473 2712 c-12 -2 -24 -10 -27 -18 -4 -11 -2 -12 13 -4 16 8 18 7
14 -9 -3 -11 -11 -17 -18 -15 -17 7 -26 -8 -14 -26 5 -9 9 -10 9 -3 0 6 9 15
20 18 11 4 18 10 15 15 -2 4 9 10 25 14 17 3 30 11 30 17 0 8 -4 8 -14 0 -11
-9 -16 -9 -23 1 -4 7 -18 12 -30 10z"/>
<path d="M2545 2680 c-16 -7 -17 -9 -3 -9 9 -1 20 4 23 9 7 11 7 11 -20 0z"/>
<path d="M2510 2660 c0 -13 18 -22 24 -11 3 5 -1 11 -9 15 -8 3 -15 1 -15 -4z"/>
<path d="M856 2551 c-4 -5 3 -7 14 -4 23 6 26 13 6 13 -8 0 -17 -4 -20 -9z"/>
<path d="M696 2513 c-6 -14 -5 -15 5 -6 7 7 10 15 7 18 -3 3 -9 -2 -12 -12z"/>
<path d="M510 2488 c0 -11 12 -10 30 2 12 7 10 9 -8 7 -12 0 -22 -5 -22 -9z"/>
<path d="M475 2482 c-11 -1 -31 -12 -45 -23 -20 -17 -21 -19 -5 -14 11 4 28 7
37 7 9 0 22 6 29 14 14 17 11 21 -16 16z"/>
<path d="M558 2423 c-21 -9 -38 -20 -38 -25 0 -5 3 -8 8 -6 4 3 22 10 40 17
17 7 32 17 32 22 0 5 -1 9 -2 8 -2 -1 -20 -8 -40 -16z"/>
<path d="M450 2370 c0 -5 4 -10 9 -10 6 0 13 5 16 10 3 6 -1 10 -9 10 -9 0
-16 -4 -16 -10z"/>
<path d="M2096 2180 c3 -14 10 -29 15 -34 14 -16 10 6 -7 34 l-15 25 7 -25z"/>
<path d="M2210 1857 c0 -7 7 -22 15 -33 13 -17 14 -16 4 14 -11 33 -19 41 -19
19z"/>
<path d="M1401 1304 c0 -11 3 -14 6 -6 3 7 2 16 -1 19 -3 4 -6 -2 -5 -13z"/>
<path d="M1446 1311 c-4 -6 -3 -11 3 -11 6 0 8 -7 5 -15 -4 -8 -1 -15 5 -15
13 0 14 20 2 39 -6 9 -11 10 -15 2z"/>
<path d="M1470 1314 c0 -13 18 -39 24 -34 2 3 -2 14 -10 24 -8 11 -14 16 -14
10z"/>
<path d="M1508 1313 c7 -3 16 -2 19 1 4 3 -2 6 -13 5 -11 0 -14 -3 -6 -6z"/>
<path d="M1420 1275 c-7 -9 -11 -18 -8 -20 3 -3 11 1 18 10 7 9 11 18 8 20 -3
3 -11 -1 -18 -10z"/>
<path d="M731 1144 c0 -11 3 -14 6 -6 3 7 2 16 -1 19 -3 4 -6 -2 -5 -13z"/>
<path d="M740 1125 c-12 -23 -12 -28 0 -35 8 -6 11 -10 6 -10 -5 0 -2 -8 8
-19 16 -18 66 -19 66 -1 0 19 -13 40 -25 40 -8 0 -15 10 -17 22 -4 31 -22 32
-38 3z m32 -57 c-7 -7 -12 -8 -12 -2 0 14 12 26 19 19 2 -3 -1 -11 -7 -17z"/>
<path d="M1273 1113 c-15 -5 -17 -23 -4 -23 5 0 11 7 15 15 3 8 4 15 3 14 -1
0 -8 -3 -14 -6z"/>
<path d="M1020 1096 c0 -2 7 -9 15 -16 12 -10 15 -10 15 4 0 9 -7 16 -15 16
-8 0 -15 -2 -15 -4z"/>
<path d="M805 1018 c-11 -13 -21 -33 -22 -45 -2 -31 40 -42 67 -18 23 21 25
36 8 53 -9 9 -16 8 -32 -6 -19 -16 -20 -16 -7 0 21 27 8 42 -14 16z m38 -43
c-3 -9 -8 -14 -10 -11 -3 3 -2 9 2 15 9 16 15 13 8 -4z"/>
<path d="M1215 1020 c-3 -5 -1 -10 4 -10 6 0 11 5 11 10 0 6 -2 10 -4 10 -3 0
-8 -4 -11 -10z"/>
<path d="M582 910 c-6 -10 -8 -21 -3 -24 5 -3 11 4 14 16 8 29 4 32 -11 8z"/>
<path d="M895 880 c3 -5 8 -10 11 -10 2 0 4 5 4 10 0 6 -5 10 -11 10 -5 0 -7
-4 -4 -10z"/>
<path d="M986 854 c-4 -9 -4 -19 -1 -22 2 -3 7 3 11 12 4 9 4 19 1 22 -2 3 -7
-3 -11 -12z"/>
<path d="M743 847 c-12 -19 14 -27 30 -9 15 17 15 18 -4 18 -11 0 -23 -4 -26
-9z"/>
<path d="M630 826 c-6 -8 -21 -17 -33 -19 -18 -4 -17 -5 5 -6 18 -1 31 6 38
19 12 23 8 26 -10 6z"/>
<path d="M394 808 c3 -15 26 -23 26 -8 0 6 -4 9 -9 6 -5 -4 -12 -1 -14 4 -3 6
-4 5 -3 -2z"/>
<path d="M721 807 c-16 -16 -14 -37 4 -31 9 4 15 0 15 -10 0 -10 -6 -13 -15
-10 -9 4 -15 0 -15 -10 0 -24 28 -19 36 6 6 19 7 20 16 4 6 -11 6 -22 -2 -31
-14 -17 -4 -55 16 -55 17 0 17 5 3 32 -9 16 -6 25 13 45 22 25 22 25 1 14 -19
-9 -23 -8 -29 11 -10 34 -29 49 -43 35z"/>
<path d="M311 616 c-7 -8 -9 -21 -5 -27 5 -9 10 -5 16 11 10 28 5 36 -11 16z"/>
<path d="M745 579 c-4 -6 -5 -12 -2 -15 2 -3 7 2 10 11 7 17 1 20 -8 4z"/>
<path d="M84 354 c3 -9 6 -19 6 -22 0 -9 20 21 20 31 0 4 -7 7 -16 7 -11 0
-14 -5 -10 -16z"/>
<path d="M7 83 c-4 -3 -7 -11 -7 -17 0 -6 5 -5 12 2 6 6 9 14 7 17 -3 3 -9 2
-12 -2z"/>
<path d="M42 71 c-9 -5 -11 -18 -7 -37 6 -28 6 -28 -7 -6 -15 24 -28 20 -28
-10 0 -14 8 -18 35 -18 31 0 34 2 27 17 -5 10 -8 28 -7 41 1 12 1 22 1 22 -1
0 -7 -4 -14 -9z"/>
<path d="M107 8 c-7 -4 7 -8 31 -8 26 0 41 4 37 10 -7 11 -50 10 -68 -2z"/>
</g>
</svg>
